<?xml version="1.0" standalone="no"?><svg xmlns="http://www.w3.org/2000/svg" viewBox="0 0 1440 320"><path fill="#3f51b5" fill-opacity="1" d="M0,256L40,240C80,224,160,192,240,197.3C320,203,400,245,480,224C560,203,640,117,720,117.3C800,117,880,203,960,213.3C1040,224,1120,160,1200,133.3C1280,107,1360,117,1400,122.7L1440,128L1440,320L1400,320C1360,320,1280,320,1200,320C1120,320,1040,320,960,320C880,320,800,320,720,320C640,320,560,320,480,320C400,320,320,320,240,320C160,320,80,320,40,320L0,320Z"></path></svg>